<svg width="16" height="16" viewBox="0 0 16 16" fill="none" xmlns="http://www.w3.org/2000/svg">
<path fill-rule="evenodd" clip-rule="evenodd" d="M5.66634 1.94759C5.11406 1.94759 4.66634 2.39531 4.66634 2.94759V13.0518C4.66634 13.604 5.11406 14.0518 5.66634 14.0518H10.333C10.8853 14.0518 11.333 13.604 11.333 13.0518V2.94759C11.333 2.39531 10.8853 1.94759 10.333 1.94759H10.2774L10.115 2.33723C10.0115 2.58564 9.76879 2.74744 9.49967 2.74744H6.49967C6.23056 2.74744 5.98783 2.58564 5.88431 2.33723L5.72193 1.94759H5.66634ZM3.33301 2.94759C3.33301 1.65893 4.37768 0.614258 5.66634 0.614258H10.333C11.6217 0.614258 12.6663 1.65893 12.6663 2.94759V13.0518C12.6663 14.3404 11.6217 15.3851 10.333 15.3851H5.66634C4.37768 15.3851 3.33301 14.3404 3.33301 13.0518V2.94759Z" fill="white"/>
</svg>
