<svg width="16" height="16" viewBox="0 0 16 16" fill="none" xmlns="http://www.w3.org/2000/svg">
<path fill-rule="evenodd" clip-rule="evenodd" d="M15.1663 12.0003V4.66699C15.1663 3.56242 14.2709 2.66699 13.1663 2.66699L2.83301 2.667C1.72844 2.667 0.833008 3.56243 0.833008 4.667V12.0003C0.833008 13.1049 1.72844 14.0003 2.83301 14.0003L13.1663 14.0003C14.2709 14.0003 15.1663 13.1049 15.1663 12.0003ZM13.833 6.1733V12.0003C13.833 12.3685 13.5345 12.667 13.1663 12.667L2.83301 12.667C2.46482 12.667 2.16634 12.3685 2.16634 12.0003L2.16634 6.17321L6.87512 9.37518C7.55384 9.83671 8.44564 9.83671 9.12436 9.37518L13.833 6.1733ZM13.8254 4.56607C13.7768 4.24577 13.5002 4.00032 13.1663 4.00033L2.83301 4.00034C2.49916 4.00034 2.22262 4.24573 2.17394 4.56599L7.62487 8.27261C7.85111 8.42646 8.14837 8.42646 8.37461 8.27261L13.8254 4.56607Z" fill="white"/>
</svg>
